<svg xmlns="http://www.w3.org/2000/svg" viewBox="0 0 512 512"><circle cx="256" cy="256" r="256" fill="#c5daf8"/><path d="M442.3 405.7c-11.1-8.8-24.7-15.1-39.4-18.2l-70.2-14.1c-7.4-1.4-12.7-8-12.7-15.7v-16.1c4.5-6.3 8.8-14.8 13.2-23.6 3.5-6.8 8.7-17.1 11.3-19.7 14.2-14.3 27.9-30.3 32.2-51 4-19.4.1-29.6-4.5-37.8 0-20.4-.6-46-5.5-64.7-.6-25.2-5.2-39.4-16.7-51.8-8.1-8.8-20.1-10.8-29.7-12.5-3.8-.6-9-1.5-10.9-2.6-17.1-9.2-33.9-13.7-54-14.1-42.1 1.7-94 28.5-111.3 76.4-5.4 14.6-4.8 38.5-4.4 57.7l-.4 11.6c-4.1 8.1-8.2 18.3-4.2 37.8 4.2 20.7 18 36.8 32.4 51.2 2.4 2.4 7.7 12.8 11.2 19.6 4.5 8.8 8.8 17.2 13.3 23.5v16.1c0 7.6-5.3 14.2-12.7 15.7L109 387.5c-14.6 3.1-28.2 9.4-39.3 18.2-3.5 2.8-5.6 6.8-6 11.3s1.1 8.7 4.1 12c47.8 52.7 116.4 83 188.2 83s140.4-30.2 188.2-83c3-3.3 4.5-7.6 4.1-12.1-.4-4.4-2.6-8.5-6-11.2z" fill="#729bc4"/></svg>